<mxfile host="app.diagrams.net" modified="2024-05-14T14:28:24.948Z" agent="Mozilla/5.0 (Windows NT 10.0; Win64; x64) AppleWebKit/537.36 (KHTML, like Gecko) Chrome/124.0.0.0 Safari/537.36" etag="S7iqaNt98eeUAtknx3Em" version="24.0.1" type="github">
  <diagram name="Page-1" id="jx7fNHoSlK5qeOcEfMU2">
    <mxGraphModel dx="1647" dy="973" grid="1" gridSize="10" guides="1" tooltips="1" connect="1" arrows="1" fold="1" page="1" pageScale="1" pageWidth="850" pageHeight="1100" math="0" shadow="0">
      <root>
        <mxCell id="0" />
        <mxCell id="1" parent="0" />
        <mxCell id="OXzJp4AB1eenJ9bYMwPS-4" value="" style="rounded=1;whiteSpace=wrap;html=1;absoluteArcSize=1;arcSize=14;strokeWidth=2;fillColor=#f5f5f5;fontColor=#333333;strokeColor=#9E9E9E;" vertex="1" parent="1">
          <mxGeometry x="30" y="20" width="680" height="170" as="geometry" />
        </mxCell>
        <mxCell id="OXzJp4AB1eenJ9bYMwPS-11" style="edgeStyle=orthogonalEdgeStyle;rounded=0;orthogonalLoop=1;jettySize=auto;html=1;exitX=1;exitY=0.5;exitDx=0;exitDy=0;exitPerimeter=0;" edge="1" parent="1" source="OXzJp4AB1eenJ9bYMwPS-1" target="OXzJp4AB1eenJ9bYMwPS-2">
          <mxGeometry relative="1" as="geometry" />
        </mxCell>
        <mxCell id="OXzJp4AB1eenJ9bYMwPS-1" value="EGA" style="shape=cylinder3;whiteSpace=wrap;html=1;boundedLbl=1;backgroundOutline=1;size=15;" vertex="1" parent="1">
          <mxGeometry x="60" y="65" width="60" height="80" as="geometry" />
        </mxCell>
        <mxCell id="OXzJp4AB1eenJ9bYMwPS-2" value="pyega3" style="shape=folder;fontStyle=1;spacingTop=10;tabWidth=40;tabHeight=14;tabPosition=left;html=1;whiteSpace=wrap;" vertex="1" parent="1">
          <mxGeometry x="180" y="80" width="70" height="50" as="geometry" />
        </mxCell>
        <mxCell id="OXzJp4AB1eenJ9bYMwPS-13" style="edgeStyle=orthogonalEdgeStyle;rounded=0;orthogonalLoop=1;jettySize=auto;html=1;exitX=1;exitY=0.5;exitDx=0;exitDy=0;" edge="1" parent="1" source="OXzJp4AB1eenJ9bYMwPS-3" target="OXzJp4AB1eenJ9bYMwPS-10">
          <mxGeometry relative="1" as="geometry" />
        </mxCell>
        <mxCell id="OXzJp4AB1eenJ9bYMwPS-3" value="&lt;b&gt;fetch_data_files.sh&lt;/b&gt;&lt;div&gt;- input_EGAF_ids.txt&lt;/div&gt;&lt;div&gt;- output directory&lt;/div&gt;&lt;div&gt;- credentials file (JSON)&lt;/div&gt;" style="shape=module;align=left;spacingLeft=20;align=center;verticalAlign=top;whiteSpace=wrap;html=1;jettyWidth=25;jettyHeight=10;" vertex="1" parent="1">
          <mxGeometry x="300" y="65" width="190" height="80" as="geometry" />
        </mxCell>
        <mxCell id="OXzJp4AB1eenJ9bYMwPS-5" value="Fetching .bam files" style="text;html=1;align=center;verticalAlign=middle;whiteSpace=wrap;rounded=0;fontStyle=1;fontSize=15;" vertex="1" parent="1">
          <mxGeometry x="30" y="20" width="150" height="30" as="geometry" />
        </mxCell>
        <mxCell id="OXzJp4AB1eenJ9bYMwPS-8" value="" style="rounded=1;whiteSpace=wrap;html=1;absoluteArcSize=1;arcSize=14;strokeWidth=2;fillColor=#D4E1F5;strokeColor=#AAB4C4;" vertex="1" parent="1">
          <mxGeometry x="30" y="200" width="680" height="170" as="geometry" />
        </mxCell>
        <mxCell id="OXzJp4AB1eenJ9bYMwPS-9" value="Converting .bam files to fastq.gz files" style="text;html=1;align=center;verticalAlign=middle;whiteSpace=wrap;rounded=0;fontStyle=1;fontSize=15;" vertex="1" parent="1">
          <mxGeometry x="30" y="200" width="280" height="30" as="geometry" />
        </mxCell>
        <mxCell id="OXzJp4AB1eenJ9bYMwPS-10" value="BO_HXX_XX.bam" style="shape=parallelogram;html=1;strokeWidth=1;perimeter=parallelogramPerimeter;whiteSpace=wrap;rounded=1;arcSize=12;size=0.1323529411764706;" vertex="1" parent="1">
          <mxGeometry x="550" y="80" width="130" height="50" as="geometry" />
        </mxCell>
        <mxCell id="OXzJp4AB1eenJ9bYMwPS-12" style="edgeStyle=orthogonalEdgeStyle;rounded=0;orthogonalLoop=1;jettySize=auto;html=1;exitX=0;exitY=0;exitDx=70;exitDy=32;exitPerimeter=0;entryX=0;entryY=0.75;entryDx=12.5;entryDy=0;entryPerimeter=0;" edge="1" parent="1" source="OXzJp4AB1eenJ9bYMwPS-2" target="OXzJp4AB1eenJ9bYMwPS-3">
          <mxGeometry relative="1" as="geometry" />
        </mxCell>
        <mxCell id="OXzJp4AB1eenJ9bYMwPS-14" value="cellranger&amp;nbsp;&lt;div&gt;bamtofastq&lt;/div&gt;" style="shape=folder;fontStyle=1;spacingTop=10;tabWidth=40;tabHeight=14;tabPosition=left;html=1;whiteSpace=wrap;" vertex="1" parent="1">
          <mxGeometry x="550" y="250" width="90" height="70" as="geometry" />
        </mxCell>
        <mxCell id="OXzJp4AB1eenJ9bYMwPS-16" style="edgeStyle=orthogonalEdgeStyle;rounded=0;orthogonalLoop=1;jettySize=auto;html=1;exitX=0.5;exitY=1;exitDx=0;exitDy=0;entryX=0;entryY=0;entryDx=65;entryDy=14;entryPerimeter=0;" edge="1" parent="1" source="OXzJp4AB1eenJ9bYMwPS-10" target="OXzJp4AB1eenJ9bYMwPS-14">
          <mxGeometry relative="1" as="geometry" />
        </mxCell>
        <mxCell id="OXzJp4AB1eenJ9bYMwPS-17" value="BO_HXX_XX_.bam" style="shape=parallelogram;html=1;strokeWidth=1;perimeter=parallelogramPerimeter;whiteSpace=wrap;rounded=1;arcSize=12;size=0.1323529411764706;" vertex="1" parent="1">
          <mxGeometry x="380" y="260" width="130" height="50" as="geometry" />
        </mxCell>
        <mxCell id="OXzJp4AB1eenJ9bYMwPS-18" value="" style="rounded=1;whiteSpace=wrap;html=1;absoluteArcSize=1;arcSize=14;strokeWidth=2;fillColor=#D4E1F5;strokeColor=#AAB4C4;" vertex="1" parent="1">
          <mxGeometry x="30" y="550" width="680" height="170" as="geometry" />
        </mxCell>
        <mxCell id="OXzJp4AB1eenJ9bYMwPS-19" value="Make transcriptome reference file" style="text;html=1;align=center;verticalAlign=middle;whiteSpace=wrap;rounded=0;fontStyle=1;fontSize=15;" vertex="1" parent="1">
          <mxGeometry x="30" y="550" width="250" height="30" as="geometry" />
        </mxCell>
        <mxCell id="OXzJp4AB1eenJ9bYMwPS-20" value="cellranger mkref" style="shape=folder;fontStyle=1;spacingTop=10;tabWidth=40;tabHeight=14;tabPosition=left;html=1;whiteSpace=wrap;" vertex="1" parent="1">
          <mxGeometry x="560" y="590" width="90" height="70" as="geometry" />
        </mxCell>
        <mxCell id="OXzJp4AB1eenJ9bYMwPS-21" value="Ensembl" style="shape=cylinder3;whiteSpace=wrap;html=1;boundedLbl=1;backgroundOutline=1;size=15;" vertex="1" parent="1">
          <mxGeometry x="50" y="600" width="60" height="80" as="geometry" />
        </mxCell>
        <mxCell id="OXzJp4AB1eenJ9bYMwPS-22" value="BO_HXX_XX.bam" style="shape=parallelogram;html=1;strokeWidth=1;perimeter=parallelogramPerimeter;whiteSpace=wrap;rounded=1;arcSize=12;size=0.1323529411764706;" vertex="1" parent="1">
          <mxGeometry x="150" y="615" width="130" height="50" as="geometry" />
        </mxCell>
      </root>
    </mxGraphModel>
  </diagram>
</mxfile>
